# xmcd
#
# Track frame offsets:
#	150
#	18437
#	30285
#	42210
#	60002
#	74205
#	88610
#	104112
#	121090
#	132562
#	150422
#	167847
#	183117
#	199437
#	214657
#	227930
#	247085
#	261155
#
# Disc length: 3717
#
# Revision: 1
# Processed by: cddbd v1.5.1PL0 Copyright (c) Steve Scherf et al.
# Submitted via: ExactAudioCopy v0.95a4
# Normalized: r0:TDELIM( - )
#
DISCID=fd0e8312
DTITLE=Various Artist - Super Country '90
DYEAR=1990
DGENRE=Country
TTITLE0=Eddie Rabbitt - Runnin' With The Wind
TTITLE1=Tanya Tucker - Walking Shoes
TTITLE2=Marty Stuart - Hillbilly Rock
TTITLE3=Eddy Raven - Island
TTITLE4=Patty Loveless - On Down The Line
TTITLE5=Michael Martin Murphy - From The Word Go
TTITLE6=Highway 101 - Who's Lonely Now
TTITLE7=Steve Wariner - When I Could Come Home To you
TTITLE8=Garth Brooks - Not Counting You
TTITLE9=Billy Joe Royal - Till I Can't Take It Anymore
TTITLE10=Steve Wariner - I Got Dreams
TTITLE11=Paul Overstreet - Seein' My Father In Me
TTITLE12=Tanya Tucker - My Arms Stay Open All Night
TTITLE13=Lionel Cartwright - I Watched It All On My Radio
TTITLE14=Marie Osmond - Slowly But Surely
TTITLE15=Vince Gill - When I Call Your Name
TTITLE16=T. Graham Brown - If You Could Only See Me Now
TTITLE17=Eddy Raven - Sooner Or Later
EXTD=
EXTT0=
EXTT1=
EXTT2=
EXTT3=
EXTT4=
EXTT5=
EXTT6=
EXTT7=
EXTT8=
EXTT9=
EXTT10=
EXTT11=
EXTT12=
EXTT13=
EXTT14=
EXTT15=
EXTT16=
EXTT17=
PLAYORDER=
